# xmcd
#
# Track frame offsets:
#	150
#	11967
#	30750
#	53185
#	75527
#	100520
#	128650
#	148137
#	182682
#	199705
#	222995
#	243800
#
# Disc length: 3502
#
# Revision: 4
# Processed by: cddbd v1.5.1PL0 Copyright (c) Steve Scherf et al.
# Submitted via: CDex 1.51
# Normalized: r3:TRMNUM
#
DISCID=970dac0c
DTITLE=法Ao - Jǎぱ
DYEAR=2000
DGENRE=
TTITLE0=Jǎぱ
TTITLE1=放u
TTITLE2=C螬Y
TTITLE3=CP
TTITLE4=れ粗
TTITLE5=CiB
TTITLE6=烂CF
TTITLE7=腻岖B
TTITLE8=H何此L
TTITLE9=峄R
TTITLE10=yPB
TTITLE11=ぱ绑q
EXTD=World YEAR: 2000
EXTT0=
EXTT1=
EXTT2=
EXTT3=
EXTT4=
EXTT5=
EXTT6=
EXTT7=
EXTT8=
EXTT9=
EXTT10=
EXTT11=
PLAYORDER=
